<svg id="Grupo" xmlns="http://www.w3.org/2000/svg" width="38.113" height="24.2" viewBox="0 0 38.113 24.2">
  <path id="Trazado_54" data-name="Trazado 54" d="M32.962,102.9a4.351,4.351,0,1,0-4.992,0,7.539,7.539,0,0,0-2.572,1.508,9.756,9.756,0,0,0-3.529-1.923,5.513,5.513,0,1,0-5.7,0,9.837,9.837,0,0,0-3.492,1.9,7.6,7.6,0,0,0-2.541-1.478,4.351,4.351,0,1,0-4.992,0A7.638,7.638,0,0,0,0,110.123v.5a.032.032,0,0,0,.03.03H9.253a10.143,10.143,0,0,0-.083,1.274v.513a4.01,4.01,0,0,0,4.012,4.012H24.871a4.01,4.01,0,0,0,4.012-4.012v-.513a10.142,10.142,0,0,0-.083-1.274h9.283a.032.032,0,0,0,.03-.03v-.5A7.667,7.667,0,0,0,32.962,102.9Zm-5.641-3.567a3.145,3.145,0,1,1,3.205,3.145h-.121A3.14,3.14,0,0,1,27.322,99.331ZM14.7,97.763a4.306,4.306,0,1,1,4.555,4.3h-.5A4.312,4.312,0,0,1,14.7,97.763ZM4.472,99.331a3.145,3.145,0,1,1,3.2,3.145H7.556A3.145,3.145,0,0,1,4.472,99.331Zm4.992,10.105H1.222a6.443,6.443,0,0,1,6.35-5.754h.09a6.376,6.376,0,0,1,4.11,1.531A9.9,9.9,0,0,0,9.464,109.436Zm18.2,3a2.81,2.81,0,0,1-2.805,2.805H13.167a2.81,2.81,0,0,1-2.805-2.805v-.513a8.663,8.663,0,0,1,8.393-8.65c.083.008.173.008.256.008s.173,0,.256-.008a8.663,8.663,0,0,1,8.393,8.65Zm.9-3a9.875,9.875,0,0,0-2.285-4.193,6.407,6.407,0,0,1,4.148-1.561h.09a6.443,6.443,0,0,1,6.35,5.754Z" transform="translate(0 -92.25)" fill="#75b300"/>
</svg>
